<svg width="17" height="17" viewBox="0 0 17 17" fill="none" xmlns="http://www.w3.org/2000/svg">
<path d="M15.9998 6.86053C14.0834 11.0344 10.6734 14.3529 6.43388 16.1519L5.75429 16.4547C4.19948 17.1475 2.37172 16.6212 1.42339 15.2077L0.535305 13.884C0.246565 13.4536 0.334475 12.8739 0.737837 12.5485L3.74968 10.1187C4.19206 9.76184 4.84258 9.84496 5.181 10.3016L6.11273 11.5589C8.50354 10.3795 10.4446 8.43849 11.6239 6.04768L10.3667 5.11596C9.91002 4.77754 9.82689 4.12702 10.1838 3.68464L12.6137 0.672698C12.939 0.269416 13.5185 0.181449 13.9489 0.470018L15.2817 1.36372C16.7041 2.31742 17.2274 4.16027 16.5187 5.71922L16.0006 6.85884L15.9998 6.86053Z" fill="#014DF5"/>
</svg>
