<svg width="20" height="21" viewBox="0 0 20 21" fill="none" xmlns="http://www.w3.org/2000/svg">
<path d="M1.04188 8.91482C3.35753 13.9583 7.47796 17.9681 12.6007 20.1419L13.4219 20.5078C15.3006 21.3449 17.5092 20.7089 18.6551 19.0009L19.7282 17.4015C20.0771 16.8814 19.9709 16.181 19.4835 15.7878L15.8442 12.8518C15.3096 12.4206 14.5236 12.521 14.1146 13.0728L12.9888 14.592C10.0999 13.167 7.75447 10.8215 6.32943 7.93262L7.84861 6.80679C8.40041 6.39787 8.50085 5.61183 8.06961 5.07729L5.13352 1.43785C4.74039 0.950555 4.04016 0.844261 3.52013 1.19295L1.90962 2.27283C0.190951 3.42523 -0.441468 5.65201 0.414917 7.53574L1.04094 8.91277L1.04188 8.91482Z" fill="#E6EDFE"/>
</svg>
