<svg width="33" height="28" viewBox="0 0 33 28" fill="none" xmlns="http://www.w3.org/2000/svg">
<g clip-path="url(#clip0_163_135)">
<path fill-rule="evenodd" clip-rule="evenodd" d="M31.5674 26.9107C31.5674 26.9107 33.6872 26.9107 33.6872 24.7857C33.6872 22.6607 31.5674 16.2857 23.0883 16.2857C14.6091 16.2857 12.4893 22.6607 12.4893 24.7857C12.4893 26.9107 14.6091 26.9107 14.6091 26.9107H31.5674ZM14.6557 24.7857H31.5208C31.5307 24.7846 31.5406 24.7831 31.5505 24.7815L31.5674 24.7772C31.5632 24.2162 31.2134 22.5885 29.9564 21.1222C28.7863 19.7474 26.7301 18.4107 23.0883 18.4107C19.4486 18.4107 17.3924 19.7495 16.2202 21.1222C14.9631 22.5885 14.6112 24.2184 14.6091 24.7772C14.6246 24.7802 14.6402 24.7831 14.6557 24.7857ZM23.0883 12.0357C24.2127 12.0357 25.291 11.588 26.0861 10.791C26.8812 9.99393 27.3279 8.91292 27.3279 7.78576C27.3279 6.65859 26.8812 5.57758 26.0861 4.78056C25.291 3.98353 24.2127 3.53576 23.0883 3.53576C21.9639 3.53576 20.8855 3.98353 20.0904 4.78056C19.2954 5.57758 18.8487 6.65859 18.8487 7.78576C18.8487 8.91292 19.2954 9.99393 20.0904 10.791C20.8855 11.588 21.9639 12.0357 23.0883 12.0357ZM29.4477 7.78576C29.4477 8.62293 29.2832 9.45191 28.9636 10.2254C28.644 10.9988 28.1756 11.7016 27.585 12.2936C26.9945 12.8855 26.2935 13.3551 25.5219 13.6755C24.7503 13.9959 23.9234 14.1607 23.0883 14.1607C22.2532 14.1607 21.4262 13.9959 20.6546 13.6755C19.8831 13.3551 19.182 12.8855 18.5915 12.2936C18.001 11.7016 17.5326 10.9988 17.213 10.2254C16.8934 9.45191 16.7289 8.62293 16.7289 7.78576C16.7289 6.095 17.3989 4.4735 18.5915 3.27796C19.7841 2.08242 21.4017 1.41077 23.0883 1.41077C24.7749 1.41077 26.3924 2.08242 27.585 3.27796C28.7776 4.4735 29.4476 6.095 29.4477 7.78576ZM14.4734 16.8807C13.6255 16.6131 12.7514 16.4371 11.8661 16.3559C11.3687 16.3084 10.8692 16.285 10.3695 16.2857C1.89036 16.2857 -0.229431 22.6607 -0.229431 24.7857C-0.229431 26.2031 0.476459 26.9107 1.89036 26.9107H10.8274C10.5132 26.2473 10.3564 25.52 10.3695 24.7857C10.3695 22.6395 11.1687 20.4465 12.6801 18.6147C13.1952 17.99 13.7951 17.4056 14.4734 16.8807ZM10.1999 18.4107C6.66413 18.4532 4.65669 19.7707 3.5014 21.1222C2.23589 22.597 1.89036 24.2311 1.89036 24.7857H8.24973C8.24973 22.5651 8.93443 20.353 10.1999 18.4107ZM2.95026 8.84825C2.95026 7.1575 3.62026 5.536 4.81287 4.34046C6.00549 3.14491 7.62302 2.47326 9.30963 2.47326C10.9962 2.47326 12.6138 3.14491 13.8064 4.34046C14.999 5.536 15.669 7.1575 15.669 8.84825C15.669 10.539 14.999 12.1605 13.8064 13.3561C12.6138 14.5516 10.9962 15.2232 9.30963 15.2232C7.62302 15.2232 6.00549 14.5516 4.81287 13.3561C3.62026 12.1605 2.95026 10.539 2.95026 8.84825ZM9.30963 4.59826C8.18522 4.59826 7.10687 5.04603 6.31179 5.84305C5.51672 6.64008 5.07005 7.72109 5.07005 8.84825C5.07005 9.97542 5.51672 11.0564 6.31179 11.8535C7.10687 12.6505 8.18522 13.0982 9.30963 13.0982C10.434 13.0982 11.5124 12.6505 12.3075 11.8535C13.1025 11.0564 13.5492 9.97542 13.5492 8.84825C13.5492 7.72109 13.1025 6.64008 12.3075 5.84305C11.5124 5.04603 10.434 4.59826 9.30963 4.59826Z" fill="white"/>
</g>
<defs>
<clipPath id="clip0_163_135">
<rect width="33" height="27" fill="white" transform="translate(0 0.5)"/>
</clipPath>
</defs>
</svg>
