<svg width="27" height="27" viewBox="0 0 27 27" fill="none" xmlns="http://www.w3.org/2000/svg">
<path fill-rule="evenodd" clip-rule="evenodd" d="M5.93479 0.527915C10.9221 -0.0294873 16.0778 -0.0294873 21.0651 0.527915C23.8483 0.838976 26.0936 3.03177 26.4204 5.82593C27.0168 10.9246 27.0168 16.0753 26.4204 21.174C26.0936 23.9681 23.8483 26.1609 21.0651 26.472C16.0778 27.0294 10.9221 27.0294 5.93478 26.472C3.15161 26.1609 0.906254 23.9681 0.579451 21.174C-0.016881 16.0753 -0.0168809 10.9246 0.579451 5.82593C0.906254 3.03177 3.15161 0.838976 5.93479 0.527915ZM7.76318 7.76316C8.23913 7.28721 9.0108 7.28721 9.48676 7.76316L13.5 11.7764L17.5132 7.76317C17.9891 7.28722 18.7608 7.28722 19.2368 7.76318C19.7127 8.23913 19.7127 9.0108 19.2368 9.48675L15.2236 13.5L19.2368 17.5132C19.7127 17.9891 19.7127 18.7608 19.2368 19.2367C18.7608 19.7127 17.9891 19.7127 17.5132 19.2367L13.5 15.2235L9.48677 19.2367C9.01082 19.7127 8.23915 19.7127 7.7632 19.2367C7.28725 18.7608 7.28724 17.9891 7.7632 17.5132L11.7764 13.5L7.76318 9.48673C7.28723 9.01078 7.28723 8.23911 7.76318 7.76316Z" fill="#DEDEDE"/>
</svg>
