<svg width="50" height="50" viewBox="0 0 50 50" fill="inherit" xmlns="http://www.w3.org/2000/svg">
<g clip-path="url(#clip0_105_367)">
<path d="M24.5417 13.0583C24.8181 12.8695 25.1819 12.8695 25.4583 13.0583L26.6667 13.8583V11.25H23.3333V13.8583L24.5417 13.0583Z" fill="inherit"/>
<path d="M44.8 35.15L43.3167 29.2083L42.5 15.275C42.5 15.25 42.4917 15.2333 42.4917 15.2083C44.732 13.6574 45.6002 10.7621 44.5829 8.23427C43.5656 5.70649 40.9339 4.21971 38.2437 4.65302C35.5536 5.08633 33.5218 7.32428 33.3497 10.0436C33.1776 12.763 34.911 15.2393 37.525 16.0083L37.7167 19.1666L33.9667 22.9166H30.8333V12.0833C30.8333 11.6231 30.4602 11.25 30 11.25H28.3333V15.4166C28.3355 15.7246 28.1649 16.0079 27.8917 16.15C27.6231 16.2971 27.2946 16.281 27.0417 16.1083L25 14.75L22.9583 16.1083C22.7063 16.2837 22.3763 16.2998 22.1083 16.15C21.8351 16.0079 21.6645 15.7246 21.6667 15.4166V11.25H20C19.5398 11.25 19.1667 11.6231 19.1667 12.0833V22.9166H16.0333L12.2833 19.1666L12.475 16.0083C15.0856 15.2389 16.816 12.7651 16.6434 10.049C16.4708 7.33292 14.4413 5.09796 11.7543 4.66517C9.0674 4.23237 6.4387 5.71701 5.42201 8.24154C4.40532 10.7661 5.2714 13.6581 7.50834 15.2083C7.50834 15.225 7.5 15.25 7.5 15.2666L6.68334 29.2083L5.2 35.15L0.500004 41.4166C-0.328423 42.5212 -0.104565 44.0882 1 44.9166C2.10457 45.7451 3.67158 45.5212 4.5 44.4166L9.5 37.7583C9.69945 37.4892 9.84387 37.1833 9.925 36.8583L10.4333 34.825L12.5 37.1916V42.9166C12.5 44.2974 13.6193 45.4166 15 45.4166C16.3807 45.4166 17.5 44.2974 17.5 42.9166V36.25C17.4955 35.6445 17.2771 35.06 16.8833 34.6L11.725 28.7083L11.9 25.85L13.2333 27.1833C13.7003 27.6544 14.3367 27.9186 15 27.9166H20.8333C22.2141 27.9166 23.3333 26.7974 23.3333 25.4166C23.3333 24.0359 22.2141 22.9166 20.8333 22.9166H29.1667C27.786 22.9166 26.6667 24.0359 26.6667 25.4166C26.6667 26.7974 27.786 27.9166 29.1667 27.9166H35C35.6633 27.9186 36.2997 27.6544 36.7667 27.1833L38.1 25.85L38.275 28.7083L33.1 34.6166C32.7157 35.0745 32.5034 35.6522 32.5 36.25V42.9166C32.5 44.2974 33.6193 45.4166 35 45.4166C36.3807 45.4166 37.5 44.2974 37.5 42.9166V37.1916L39.5667 34.825L40.075 36.85C40.1527 37.1762 40.2974 37.4827 40.5 37.75L45.5 44.4166C46.3284 45.5212 47.8954 45.7451 49 44.9166C50.1046 44.0882 50.3284 42.5212 49.5 41.4166L44.8 35.15Z" fill="inherit"/>
</g>
<defs>
<clipPath id="clip0_105_367">
<rect width="50" height="50" fill="inherit"/>
</clipPath>
</defs>
</svg>
