<svg width="50" height="50" viewBox="0 0 50 50" fill="inherit" xmlns="http://www.w3.org/2000/svg">
<g clip-path="url(#clip0_105_396)">
<path d="M20.6897 21.5515H15.5172V30.1722H20.6897V21.5515Z" fill="inherit"/>
<path d="M20.6896 19.8275C21.6419 19.8275 22.4138 20.5995 22.4138 21.5517V30.1724H25.8621V18.4887L18.1034 13.1172L10.3448 18.4887V30.1724H13.7931V21.5517C13.7931 20.5995 14.565 19.8275 15.5172 19.8275H20.6896Z" fill="inherit"/>
<path d="M18.1034 11.2069C18.2788 11.2066 18.45 11.2602 18.594 11.3603L28.4483 18.1819V15.969L18.1034 8.80688L7.75861 15.969V18.1819L17.6129 11.3603C17.7569 11.2602 17.9281 11.2066 18.1034 11.2069Z" fill="inherit"/>
<path d="M15.5172 40.5171C15.5172 38.1366 13.5874 36.2068 11.2069 36.2068C8.82635 36.2068 6.89655 38.1366 6.89655 40.5171C6.89655 42.8977 8.82635 44.8275 11.2069 44.8275C13.5862 44.8246 15.5144 42.8965 15.5172 40.5171ZM11.2069 43.1033C9.77857 43.1033 8.62068 41.9454 8.62068 40.5171C8.62068 39.0888 9.77857 37.9309 11.2069 37.9309C12.6352 37.9309 13.7931 39.0888 13.7931 40.5171C13.7931 41.9454 12.6352 43.1033 11.2069 43.1033Z" fill="inherit"/>
<path d="M48.2759 26.7241C48.2759 26.248 47.8899 25.8621 47.4138 25.8621H46.5517V27.5862H48.2759V26.7241Z" fill="inherit"/>
<path d="M11.2069 41.3794C11.683 41.3794 12.069 40.9934 12.069 40.5173C12.069 40.0412 11.683 39.6553 11.2069 39.6553C10.7308 39.6553 10.3448 40.0412 10.3448 40.5173C10.3448 40.9934 10.7308 41.3794 11.2069 41.3794Z" fill="inherit"/>
<path d="M16.6509 37.931H32.7586V16.3793C32.7586 14.951 33.9165 13.7931 35.3448 13.7931H43.9655C44.4416 13.7931 44.8276 13.4071 44.8276 12.931V4.31031C44.8276 3.8342 44.4416 3.44824 43.9655 3.44824H4.31034C3.83423 3.44824 3.44827 3.8342 3.44827 4.31031V34.4827H11.2069C13.5348 34.4859 15.6532 35.8278 16.6509 37.931ZM34.4827 5.17238H42.2414C42.7175 5.17238 43.1034 5.55834 43.1034 6.03445C43.1034 6.51056 42.7175 6.89652 42.2414 6.89652H34.4827C34.0066 6.89652 33.6207 6.51056 33.6207 6.03445C33.6207 5.55834 34.0066 5.17238 34.4827 5.17238ZM30.1724 5.17238H31.0345C31.5106 5.17238 31.8965 5.55834 31.8965 6.03445C31.8965 6.51056 31.5106 6.89652 31.0345 6.89652H30.1724C29.6963 6.89652 29.3103 6.51056 29.3103 6.03445C29.3103 5.55834 29.6963 5.17238 30.1724 5.17238ZM8.62068 30.1724V19.6827L7.38706 20.5362C7.12346 20.7186 6.78043 20.7396 6.49649 20.5909C6.21254 20.4421 6.03459 20.1481 6.03448 19.8276V15.5172C6.03457 15.2343 6.17343 14.9695 6.40603 14.8086L17.6129 7.04997C17.9081 6.84576 18.2988 6.84576 18.594 7.04997L29.8008 14.8086C30.0335 14.9695 30.1723 15.2343 30.1724 15.5172V19.8276C30.1723 20.1481 29.9943 20.4421 29.7104 20.5909C29.4264 20.7396 29.0834 20.7186 28.8198 20.5362L27.5862 19.6827V30.1724C27.5862 31.1246 26.8143 31.8965 25.8621 31.8965H10.3448C9.39261 31.8965 8.62068 31.1246 8.62068 30.1724Z" fill="inherit"/>
<path d="M2.58622 37.9309H5.76294C6.06814 37.2886 6.48396 36.705 6.99139 36.2068H2.58622C2.11011 36.2068 1.72415 36.5927 1.72415 37.0689C1.72415 37.545 2.11011 37.9309 2.58622 37.9309Z" fill="inherit"/>
<path d="M49.1379 36.2068H43.8698C44.3778 36.7047 44.7939 37.2884 45.0991 37.9309H49.1379C49.614 37.9309 50 37.545 50 37.0689C50 36.5927 49.614 36.2068 49.1379 36.2068Z" fill="inherit"/>
<path d="M35.3448 15.5173C34.8687 15.5173 34.4828 15.9033 34.4828 16.3794V24.138H42.769L39.8957 15.5173H35.3448ZM36.4595 18.3561L37.3215 17.4941C37.6598 17.1674 38.1975 17.172 38.53 17.5046C38.8625 17.8371 38.8672 18.3748 38.5405 18.713L37.6784 19.5751C37.3402 19.9018 36.8025 19.8971 36.47 19.5646C36.1374 19.2321 36.1328 18.6944 36.4595 18.3561ZM40.2646 21.2992L38.5405 23.0234C38.2023 23.3501 37.6646 23.3454 37.332 23.0129C36.9995 22.6803 36.9948 22.1427 37.3215 21.8044L39.0457 20.0803C39.3839 19.7536 39.9216 19.7582 40.2541 20.0908C40.5867 20.4233 40.5913 20.961 40.2646 21.2992Z" fill="inherit"/>
<path d="M44.8276 25.8621H34.4828V37.425C35.5699 35.6032 37.5337 34.4861 39.6552 34.4828C39.8784 34.4835 40.1014 34.4964 40.3233 34.5215C40.3862 34.5011 40.4513 34.4881 40.5172 34.4828H48.2758V29.3103H46.5517C45.5995 29.3103 44.8276 28.5384 44.8276 27.5862V25.8621Z" fill="inherit"/>
<path d="M43.9655 40.5171C43.9655 38.1366 42.0357 36.2068 39.6552 36.2068C37.2746 36.2068 35.3448 38.1366 35.3448 40.5171C35.3448 42.8977 37.2746 44.8275 39.6552 44.8275C42.0345 44.8246 43.9626 42.8965 43.9655 40.5171ZM39.6552 43.1033C38.2268 43.1033 37.069 41.9454 37.069 40.5171C37.069 39.0888 38.2268 37.9309 39.6552 37.9309C41.0835 37.9309 42.2414 39.0888 42.2414 40.5171C42.2414 41.9454 41.0835 43.1033 39.6552 43.1033Z" fill="inherit"/>
<path d="M39.6552 41.3794C40.1313 41.3794 40.5172 40.9934 40.5172 40.5173C40.5172 40.0412 40.1313 39.6553 39.6552 39.6553C39.1791 39.6553 38.7931 40.0412 38.7931 40.5173C38.7931 40.9934 39.1791 41.3794 39.6552 41.3794Z" fill="inherit"/>
<path d="M1.72414 46.5518C2.20025 46.5518 2.58621 46.1658 2.58621 45.6897C2.58621 45.2136 2.20025 44.8276 1.72414 44.8276H0.862069C0.385961 44.8276 0 45.2136 0 45.6897C0 46.1658 0.385961 46.5518 0.862069 46.5518H1.72414Z" fill="inherit"/>
<path d="M30.1724 46.5518C30.6485 46.5518 31.0345 46.1658 31.0345 45.6897C31.0345 45.2136 30.6485 44.8276 30.1724 44.8276H29.3103C28.8342 44.8276 28.4483 45.2136 28.4483 45.6897C28.4483 46.1658 28.8342 46.5518 29.3103 46.5518H30.1724Z" fill="inherit"/>
<path d="M4.31033 45.6897C4.31033 46.1658 4.69629 46.5518 5.1724 46.5518H11.2069C11.683 46.5518 12.069 46.1658 12.069 45.6897C12.069 45.2136 11.683 44.8276 11.2069 44.8276H5.1724C4.69629 44.8276 4.31033 45.2136 4.31033 45.6897Z" fill="inherit"/>
<path d="M32.7586 45.6897C32.7586 46.1658 33.1446 46.5518 33.6207 46.5518H39.6552C40.1313 46.5518 40.5172 46.1658 40.5172 45.6897C40.5172 45.2136 40.1313 44.8276 39.6552 44.8276H33.6207C33.1446 44.8276 32.7586 45.2136 32.7586 45.6897Z" fill="inherit"/>
</g>
<defs>
<clipPath id="clip0_105_396">
<rect width="50" height="50" fill="inherit"/>
</clipPath>
</defs>
</svg>
