<svg width="50" height="50" viewBox="0 0 50 50" fill="inherit" xmlns="http://www.w3.org/2000/svg">
<g clip-path="url(#clip0_105_390)">
<path d="M7.35294 38.2354H42.6471V41.1765H7.35294V38.2354Z" fill="inherit"/>
<path d="M1.47058 44.1177H48.5294V50H1.47058V44.1177Z" fill="inherit"/>
<path d="M44.5789 29.4118L30.5337 19.6411C30.7589 19.018 30.8824 18.3468 30.8824 17.6471H27.9412C27.9412 19.2688 26.6218 20.5882 25 20.5882C23.3782 20.5882 22.0588 19.2688 22.0588 17.6471C22.0588 16.0253 23.3782 14.7059 25 14.7059H26.4706V8.67549C29.3474 8.08931 31.6187 5.81794 32.205 2.94118H39.7059V0C39.2065 0 11.1866 0 10.2941 0V2.94118H17.795C18.3813 5.81804 20.6525 8.08931 23.5294 8.67549V11.9507C20.2456 12.799 18.3163 16.286 19.4352 19.5495L5.41676 29.4118H1.47058V35.2941H48.5294V29.4118H44.5789ZM10.5285 29.4118L21.0548 22.0063C23.2653 24.0087 26.62 24.0448 28.8732 22.0687L39.4285 29.4118H10.5285Z" fill="inherit"/>
</g>
<defs>
<clipPath id="clip0_105_390">
<rect width="50" height="50" fill="inherit"/>
</clipPath>
</defs>
</svg>
