<svg width="50" height="50" viewBox="0 0 50 50" fill="inherit" xmlns="http://www.w3.org/2000/svg">
<g clip-path="url(#clip0_105_416)">
<path d="M40.0389 8.77877V8.53245C40.0389 7.30753 39.0463 6.3155 37.8214 6.3155H32.4318C32.4447 6.31046 32.4537 6.30542 32.4677 6.30094C33.7066 5.89338 32.8987 5.87323 32.8987 5.87323L28.9547 1.89952L26.8519 2.13857C26.8519 2.13857 26.7489 3.24145 26.057 3.80856C25.9517 3.89533 25.879 3.98435 25.8185 4.07448C25.8515 3.98099 25.5638 3.97315 25.5638 3.97315L21.6208 0L19.517 0.239609C19.517 0.239609 19.414 1.34248 18.7231 1.9096C18.0323 2.47671 18.4281 3.16867 18.4281 3.16867L17.6471 3.94348L18.1303 4.4311C18.1303 4.4311 17.108 5.436 16.9294 6.31494H15.3787C15.8389 5.19359 15.7767 3.07629 15.7767 3.07629C15.7767 3.07629 13.8414 4.04705 14.4253 2.88035C15.0081 1.71366 14.4253 2.27349 14.4253 2.27349H8.82693L7.51468 3.93508C7.51468 3.93508 8.22567 4.78491 8.14114 5.67505C8.11482 5.95161 8.17529 6.15539 8.26486 6.31494H5.30501C4.08121 6.31494 3.08862 7.30697 3.08862 8.53189V8.77822C3.08862 10.0031 4.08121 12.2889 5.30501 12.2889H6.71635L8.60132 48.5982C8.64275 49.3842 9.29104 50.0006 10.0776 50.0006H33.2318C34.0212 50.0006 34.67 49.3808 34.7081 48.5914L36.4229 12.2884H37.8202C39.0457 12.2889 40.0389 10.0031 40.0389 8.77877ZM25.1333 4.40086C25.5766 4.25475 25.7564 4.15902 25.8056 4.09575C25.4949 4.58561 25.7619 5.06763 25.7619 5.06763L25.5039 5.32403C24.981 5.09282 24.2845 4.68078 25.1333 4.40086ZM25.2794 6.14363L25.4501 6.3155H25.0873C25.154 6.25672 25.2183 6.19905 25.2794 6.14363ZM14.5193 33.1478C13.6426 33.6578 13.2631 32.8735 13.2631 32.8735C13.169 32.4368 13.1164 31.9834 13.1164 31.5159C13.1164 28.172 15.6435 25.4473 18.7791 25.3633L16.5661 23.9055C16.1462 23.6284 16.0175 23.0445 16.2783 22.6C16.5387 22.1538 17.0907 22.0183 17.5083 22.2943L21.3241 24.8074C21.5251 24.9401 21.6684 25.1517 21.7222 25.3969C21.7759 25.6416 21.7362 25.8991 21.6108 26.113L19.2404 30.1589C19.0719 30.4478 18.7802 30.6067 18.4819 30.6067C18.3201 30.6067 18.1583 30.5608 18.0105 30.464C17.5906 30.1874 17.4624 29.6035 17.7227 29.1579L18.8368 27.2561C16.6596 27.3065 14.9039 29.196 14.9039 31.5159C14.9039 31.7371 14.9247 31.9487 14.9555 32.1597C14.9555 32.1597 15.1564 32.8136 14.5193 33.1478ZM26.0217 37.8941C25.7054 38.2093 25.3527 38.4987 24.9603 38.7518C22.1493 40.5623 18.488 39.914 16.72 37.3231L16.6937 39.9733C16.687 40.475 16.2671 40.9004 15.751 40.9217C15.2359 40.9435 14.8228 40.5539 14.8284 40.0517L14.8743 35.4835C14.8776 35.2416 14.9784 35.0065 15.1542 34.8285C15.3311 34.6527 15.5696 34.5446 15.817 34.5345L20.5023 34.3369C20.836 34.3224 21.1288 34.4814 21.2894 34.7322C21.3768 34.8677 21.426 35.0294 21.4238 35.2052C21.4182 35.7074 20.9972 36.1323 20.4821 36.1542L18.2786 36.2482C19.5002 38.0514 22.0402 38.5032 23.9917 37.2469C24.1754 37.1277 24.3439 36.995 24.5046 36.8556C24.5046 36.8556 24.9451 36.3316 25.5716 36.686C26.4757 37.149 26.0217 37.8941 26.0217 37.8941ZM31.6531 32.6809L27.8384 35.1929C27.6363 35.3245 27.3855 35.3726 27.1386 35.325C26.8928 35.2775 26.6717 35.1403 26.525 34.9399L23.7454 31.1638C23.5467 30.8956 23.5148 30.5636 23.6329 30.2888C23.6973 30.1404 23.8048 30.01 23.9509 29.9126C24.3708 29.6371 24.958 29.7491 25.2643 30.1645L26.5709 31.9403C27.3855 29.9204 26.3436 27.5607 24.2112 26.6426C24.0102 26.5558 23.8053 26.4908 23.5999 26.4354C23.5999 26.4354 22.9197 26.3621 22.8642 25.6449C22.7428 24.6378 23.6144 24.5986 23.6144 24.5986C24.0528 24.6859 24.4894 24.8164 24.9177 25.0006C27.9901 26.3229 29.4949 29.7211 28.3338 32.6345L30.5469 31.1767C30.9667 30.9012 31.5551 31.0137 31.8602 31.4286C32.1659 31.8451 32.073 32.4061 31.6531 32.6809ZM32.8506 13.9964H9.98915L9.6762 12.2889H33.4653L32.8506 13.9964ZM46.912 45.294C46.912 45.294 45.2465 47.0469 44.1083 47.3716C42.9702 47.6963 43.8592 48.4336 43.8592 48.4336L42.9595 48.2225L42.4148 48.6267L41.9367 47.9829C41.9367 47.9829 39.9487 47.9012 38.4092 47.1549C36.8696 46.4087 39.0961 44.227 39.0961 44.227L38.613 43.7394L39.3939 42.9646C39.3939 42.9646 38.9981 42.2732 39.689 41.7055C40.3798 41.1378 40.4828 40.0355 40.4828 40.0355L42.5867 39.7959L46.5296 43.7696C46.5296 43.7696 47.3386 43.7897 46.0985 44.1979C44.8596 44.6043 46.912 45.294 46.912 45.294Z" fill="inherit"/>
</g>
<defs>
<clipPath id="clip0_105_416">
<rect width="50" height="50" fill="inherit"/>
</clipPath>
</defs>
</svg>
