<svg width="26" height="25" viewBox="0 0 26 25" fill="none" xmlns="http://www.w3.org/2000/svg">
<path d="M5.7071 0.626145C6.09762 1.01667 6.09762 1.64983 5.7071 2.04036L2.37376 5.37369C1.98324 5.76422 1.35007 5.76422 0.95955 5.37369C0.569025 4.98317 0.569025 4.35 0.95955 3.95948L4.29288 0.626145C4.68341 0.235621 5.31657 0.235621 5.7071 0.626145Z" fill="#B1BEDA"/>
<path fill-rule="evenodd" clip-rule="evenodd" d="M13 1.99992C6.74076 1.99992 1.66666 7.07402 1.66666 13.3333C1.66666 19.5925 6.74076 24.6666 13 24.6666C19.2592 24.6666 24.3333 19.5925 24.3333 13.3333C24.3333 7.07402 19.2592 1.99992 13 1.99992ZM14 6.66658C14 6.1143 13.5523 5.66658 13 5.66658C12.4477 5.66658 12 6.1143 12 6.66658V13.3333C12 13.678 12.1776 13.9985 12.47 14.1812L16.47 16.6812C16.9383 16.974 17.5553 16.8316 17.848 16.3632C18.1407 15.8949 17.9983 15.278 17.53 14.9853L14 12.779V6.66658Z" fill="#B1BEDA"/>
<path d="M20.2929 2.04036C19.9024 1.64983 19.9024 1.01667 20.2929 0.626145C20.6834 0.235621 21.3166 0.235621 21.7071 0.626145L25.0404 3.95948C25.431 4.35 25.431 4.98317 25.0404 5.37369C24.6499 5.76422 24.0167 5.76422 23.6262 5.37369L20.2929 2.04036Z" fill="#B1BEDA"/>
</svg>
